<svg width="32" height="32" viewBox="0 0 32 32" fill="none" xmlns="http://www.w3.org/2000/svg">
<path d="M1.2973 6.05407H3.64385C3.92524 7.04998 4.52411 7.92679 5.34941 8.55121C6.17471 9.17564 7.18131 9.51353 8.21622 9.51353C9.25112 9.51353 10.2577 9.17564 11.083 8.55121C11.9083 7.92679 12.5072 7.04998 12.7886 6.05407H30.7027C31.0468 6.05407 31.3767 5.91739 31.62 5.67409C31.8633 5.4308 32 5.10083 32 4.75676C32 4.4127 31.8633 4.08273 31.62 3.83944C31.3767 3.59614 31.0468 3.45947 30.7027 3.45947H12.7886C12.5072 2.46355 11.9083 1.58674 11.083 0.962317C10.2577 0.337893 9.25112 0 8.21622 0C7.18131 0 6.17471 0.337893 5.34941 0.962317C4.52411 1.58674 3.92524 2.46355 3.64385 3.45947H1.2973C0.953235 3.45947 0.623261 3.59614 0.37997 3.83944C0.136679 4.08273 0 4.4127 0 4.75676C0 5.10083 0.136679 5.4308 0.37997 5.67409C0.623261 5.91739 0.953235 6.05407 1.2973 6.05407ZM8.21622 2.59457C8.64385 2.59458 9.06188 2.72139 9.41745 2.95897C9.77301 3.19655 10.0501 3.53423 10.2138 3.92931C10.3774 4.32439 10.4203 4.75913 10.3368 5.17855C10.2534 5.59796 10.0475 5.98322 9.7451 6.28561C9.44271 6.58799 9.05746 6.79392 8.63804 6.87735C8.21863 6.96078 7.78389 6.91796 7.38881 6.75432C6.99372 6.59067 6.65604 6.31355 6.41845 5.95799C6.18087 5.60243 6.05406 5.1844 6.05405 4.75676C6.05471 4.18352 6.28273 3.63395 6.68807 3.22861C7.09341 2.82326 7.64298 2.59524 8.21622 2.59457Z" fill="white"/>
<path d="M30.7027 14.27H27.4913C27.2099 13.2741 26.611 12.3973 25.7857 11.7729C24.9604 11.1484 23.9538 10.8105 22.9189 10.8105C21.884 10.8105 20.8774 11.1484 20.0521 11.7729C19.2268 12.3973 18.6279 13.2741 18.3465 14.27H1.2973C0.953235 14.27 0.623261 14.4067 0.37997 14.65C0.136679 14.8933 0 15.2232 0 15.5673C0 15.9114 0.136679 16.2414 0.37997 16.4846C0.623261 16.7279 0.953235 16.8646 1.2973 16.8646H18.3465C18.6279 17.8605 19.2268 18.7373 20.0521 19.3618C20.8774 19.9862 21.884 20.3241 22.9189 20.3241C23.9538 20.3241 24.9604 19.9862 25.7857 19.3618C26.611 18.7373 27.2099 17.8605 27.4913 16.8646H30.7027C31.0468 16.8646 31.3767 16.7279 31.62 16.4846C31.8633 16.2414 32 15.9114 32 15.5673C32 15.2232 31.8633 14.8933 31.62 14.65C31.3767 14.4067 31.0468 14.27 30.7027 14.27ZM22.9189 17.7295C22.4913 17.7295 22.0733 17.6027 21.7177 17.3651C21.3621 17.1275 21.085 16.7898 20.9213 16.3947C20.7577 15.9997 20.7149 15.5649 20.7983 15.1455C20.8817 14.7261 21.0877 14.3408 21.39 14.0384C21.6924 13.7361 22.0777 13.5301 22.4971 13.4467C22.9165 13.3633 23.3513 13.4061 23.7463 13.5697C24.1414 13.7334 24.4791 14.0105 24.7167 14.3661C24.9543 14.7216 25.0811 15.1397 25.0811 15.5673C25.0804 16.1405 24.8524 16.6901 24.4471 17.0954C24.0417 17.5008 23.4922 17.7288 22.9189 17.7295Z" fill="white"/>
<path d="M30.7027 25.081H12.7886C12.5072 24.0851 11.9083 23.2083 11.083 22.5839C10.2577 21.9595 9.25112 21.6216 8.21622 21.6216C7.18131 21.6216 6.17471 21.9595 5.34941 22.5839C4.52411 23.2083 3.92524 24.0851 3.64385 25.081H1.2973C0.953235 25.081 0.623261 25.2177 0.37997 25.461C0.136679 25.7043 0 26.0343 0 26.3783C0 26.7224 0.136679 27.0524 0.37997 27.2957C0.623261 27.539 0.953235 27.6756 1.2973 27.6756H3.64385C3.92524 28.6716 4.52411 29.5484 5.34941 30.1728C6.17471 30.7972 7.18131 31.1351 8.21622 31.1351C9.25112 31.1351 10.2577 30.7972 11.083 30.1728C11.9083 29.5484 12.5072 28.6716 12.7886 27.6756H30.7027C31.0468 27.6756 31.3767 27.539 31.62 27.2957C31.8633 27.0524 32 26.7224 32 26.3783C32 26.0343 31.8633 25.7043 31.62 25.461C31.3767 25.2177 31.0468 25.081 30.7027 25.081ZM8.21622 28.5405C7.78859 28.5405 7.37055 28.4137 7.01499 28.1761C6.65942 27.9386 6.38229 27.6009 6.21865 27.2058C6.055 26.8107 6.01218 26.376 6.0956 25.9566C6.17903 25.5371 6.38496 25.1519 6.68734 24.8495C6.98973 24.5471 7.37499 24.3412 7.7944 24.2578C8.21382 24.1743 8.64856 24.2172 9.04364 24.3808C9.43873 24.5445 9.77641 24.8216 10.014 25.1771C10.2516 25.5327 10.3784 25.9507 10.3784 26.3784C10.3777 26.9516 10.1497 27.5012 9.74435 27.9065C9.33902 28.3118 8.78945 28.5399 8.21622 28.5405Z" fill="white"/>
</svg>
